# xmcd
#
# Track frame offsets: 
#        150
#        16629
#        30484
#        48421
#        66055
#        84856
#        101443
#        119063
#        136660
#        153413
#
# Disc length: 2241 seconds
#
# Revision: 0
# Processed by: cddbd v1.5.1PL0 Copyright (c) Steve Scherf et al.
# Submitted via: ExactAudioCopy v0.95a5
#
DISCID=6e08bf0a
DTITLE=Elena Ley - ... and so on
DYEAR=2003
DGENRE=Country
TTITLE0=Real Soon
TTITLE1=Some People Fall, Some People Fly
TTITLE2=If You Came To Me Tonight
TTITLE3=If I Could Be The One You Love
TTITLE4=Can't Win For Losing You
TTITLE5=And So On
TTITLE6=What's Not To Love About You
TTITLE7=I Just Died In Your Arms Tonight
TTITLE8=Someday
TTITLE9=Wish You Were Here
EXTD=
EXTT0=
EXTT1=
EXTT2=
EXTT3=
EXTT4=
EXTT5=
EXTT6=
EXTT7=
EXTT8=
EXTT9=
PLAYORDER=
